<?xml version="1.0" encoding="UTF-8"?>
<svg width="312px" height="155px" viewBox="0 0 312 155" version="1.1" xmlns="http://www.w3.org/2000/svg" xmlns:xlink="http://www.w3.org/1999/xlink">
    <!-- Generator: Sketch 40.3 (33839) - http://www.bohemiancoding.com/sketch -->
    <title>inbox_right_blue_front</title>
    <desc>Created with Sketch.</desc>
    <defs>
        <linearGradient x1="71.274499%" y1="93.4365571%" x2="50%" y2="93.4365571%" id="linearGradient-1">
            <stop stop-color="#FFFFFF" offset="0%"></stop>
            <stop stop-color="#80A2ED" offset="100%"></stop>
        </linearGradient>
        <path d="M2267.8051,143.283907 L2171.73901,197.592183 C2163.77521,202.094293 2150.87149,202.098898 2142.9143,197.600524 C2142.9143,197.600524 2122.58165,186.263822 2112.22926,180.253591 C2101.87686,174.24336 2101.87686,185.961134 2101.87686,185.961134 L2101.87686,188.401155 L2019.80031,142.00147 L2019.80031,139.699415 C2019.80031,139.699415 2019.80031,128.137892 2010.41776,122.5959 C2001.03522,117.053907 1978.7612,104.801155 1978.7612,104.801155 C1970.80555,100.303651 1972.75631,93.7720571 1972.79812,96.7528503 C1972.83901,99.6690785 1972.82313,133.672838 1972.79772,136.604153 C1972.772,139.570034 1974.76006,142.539223 1978.7612,144.801155 L2142.9143,237.600524 C2150.87149,242.098898 2163.77521,242.094293 2171.73901,237.592183 L2267.8051,183.283907 C2271.80548,181.022401 2273.79805,178.057628 2273.7835,175.096644 C2273.76906,172.160442 2273.79279,138.065456 2273.78354,135.108372 C2273.77435,132.168252 2275.77238,138.779824 2267.8051,143.283907 Z" id="path-2"></path>
        <mask id="mask-3" maskContentUnits="userSpaceOnUse" maskUnits="objectBoundingBox" x="-5" y="-5" width="311.442403" height="154.971537">
            <rect x="1967.5576" y="91" width="311.442403" height="154.971537" fill="white"></rect>
            <use xlink:href="#path-2" fill="black"></use>
        </mask>
    </defs>
    <g id="Illustration" stroke="none" stroke-width="1" fill="none" fill-rule="evenodd">
        <g id="Encrypted-Email-1" transform="translate(-1967.000000, -91.000000)">
            <g id="inbox_right_blue_front" transform="translate(2123.278799, 168.485768) scale(-1, 1) rotate(-360.000000) translate(-2123.278799, -168.485768) ">
                <use fill="url(#linearGradient-1)" fill-rule="evenodd" xlink:href="#path-2"></use>
                <use stroke="#0247DC" mask="url(#mask-3)" stroke-width="10" xlink:href="#path-2"></use>
            </g>
        </g>
    </g>
</svg>