<?xml version="1.0" encoding="UTF-8"?>
<svg width="312px" height="221px" viewBox="0 0 312 221" version="1.1" xmlns="http://www.w3.org/2000/svg" xmlns:xlink="http://www.w3.org/1999/xlink">
    <!-- Generator: Sketch 40.3 (33839) - http://www.bohemiancoding.com/sketch -->
    <title>inbox_right_blue_back</title>
    <desc>Created with Sketch.</desc>
    <defs>
        <linearGradient x1="33.1764249%" y1="93.4365571%" x2="44.4736702%" y2="93.4365571%" id="linearGradient-1">
            <stop stop-color="#FFFFFF" offset="0%"></stop>
            <stop stop-color="#80A2ED" offset="100%"></stop>
        </linearGradient>
        <path d="M0.557843875,105.785871 C0.532089093,108.751751 2.52314414,111.72094 6.53032054,113.982873 L170.931097,206.782241 C178.900291,211.280616 191.823481,211.276011 199.799295,206.7739 L296.010323,152.465625 C300.016743,150.204119 302.012322,147.239346 301.997744,144.278361 C301.983288,141.34216 302.007049,107.247174 301.997791,104.29009 C301.988587,101.34997 299.997466,98.4126647 296.0251,96.1703817 L131.624324,3.37101291 C123.655129,-1.12736135 110.731939,-1.12275632 102.756126,3.37935409 L6.54509755,57.6876298 C2.51176209,59.9643282 0.516376726,62.9537747 0.558242466,65.9345678 C0.599201381,68.8507961 0.583298505,102.854555 0.557843875,105.785871 Z" id="path-2"></path>
        <mask id="mask-3" maskContentUnits="userSpaceOnUse" maskUnits="objectBoundingBox" x="-5" y="-5" width="311.442403" height="220.153254">
            <rect x="-4.44240279" y="-5" width="311.442403" height="220.153254" fill="white"></rect>
            <use xlink:href="#path-2" fill="black"></use>
        </mask>
        <linearGradient x1="0%" y1="50%" x2="100%" y2="50%" id="linearGradient-4">
            <stop stop-color="#FFFFFF" offset="0%"></stop>
            <stop stop-color="#80A2ED" offset="100%"></stop>
        </linearGradient>
        <path d="M6.5324974,113.982873 L170.933273,206.782241 C178.902468,211.280616 191.825658,211.276011 199.801472,206.7739 L296.0125,152.465625 C300.01892,150.204119 302.014499,147.239346 301.999921,144.278361 C301.990764,141.34997 299.999643,138.412665 296.027277,136.170382 L131.626501,43.3710129 C123.657306,38.8726386 110.734116,38.8772437 102.758302,43.3793541 L6.54727441,97.6876298 C2.51393896,99.9643282 0.518553589,102.953775 0.560419329,105.934568 C0.534265956,108.751751 2.525321,111.72094 6.5324974,113.982873 Z" id="path-5"></path>
        <mask id="mask-6" maskContentUnits="userSpaceOnUse" maskUnits="objectBoundingBox" x="0" y="0" width="301.440226" height="170.153254" fill="white">
            <use xlink:href="#path-5"></use>
        </mask>
    </defs>
    <g id="Illustration" stroke="none" stroke-width="1" fill="none" fill-rule="evenodd">
        <g id="Encrypted-Email-1" transform="translate(-1967.000000, -26.000000)">
            <g id="inbox_right_blue_back" transform="translate(1972.000000, 31.000000)">
                <g id="Combined-Shape-Copy-6" transform="translate(151.278799, 105.076627) scale(-1, 1) rotate(-360.000000) translate(-151.278799, -105.076627) ">
                    <use fill="url(#linearGradient-1)" fill-rule="evenodd" xlink:href="#path-2"></use>
                    <use stroke="#0247DC" mask="url(#mask-3)" stroke-width="10" xlink:href="#path-2"></use>
                </g>
                <use id="Combined-Shape-Copy-5" stroke="#0247DC" mask="url(#mask-6)" stroke-width="10" stroke-linecap="round" stroke-linejoin="round" fill="url(#linearGradient-4)" transform="translate(151.279887, 125.076627) scale(-1, 1) rotate(-360.000000) translate(-151.279887, -125.076627) " xlink:href="#path-5"></use>
            </g>
        </g>
    </g>
</svg>