<?xml version="1.0" encoding="UTF-8"?>
<svg width="312px" height="156px" viewBox="0 0 312 156" version="1.1" xmlns="http://www.w3.org/2000/svg" xmlns:xlink="http://www.w3.org/1999/xlink">
    <!-- Generator: Sketch 40.3 (33839) - http://www.bohemiancoding.com/sketch -->
    <title>inbox_left_blue_front</title>
    <desc>Created with Sketch.</desc>
    <defs>
        <linearGradient x1="52.6557834%" y1="94.2656763%" x2="69.586101%" y2="94.2656755%" id="linearGradient-1">
            <stop stop-color="#FFFFFF" offset="0%"></stop>
            <stop stop-color="#80A2ED" offset="100%"></stop>
        </linearGradient>
        <path d="M1334.57142,143.672382 L1238.50534,197.980658 C1230.54154,202.482769 1217.63782,202.487374 1209.68063,197.988999 C1209.68063,197.988999 1189.34798,186.652298 1178.99558,180.642067 C1168.64319,174.631836 1168.64319,186.349609 1168.64319,186.349609 L1168.64319,188.78963 L1086.56663,142.389946 L1086.56663,140.087891 C1086.56663,140.087891 1086.56663,128.526367 1077.18409,122.984375 C1067.80154,117.442383 1045.52752,105.189631 1045.52752,105.189631 C1037.57187,100.692127 1039.52264,94.1605326 1039.56444,97.1413258 C1039.60534,100.057554 1039.58946,134.061313 1039.56404,136.992629 C1039.53833,139.958509 1041.52638,142.927698 1045.52752,145.189631 L1209.68063,237.988999 C1217.63782,242.487374 1230.54154,242.482769 1238.50534,237.980658 L1334.57142,183.672382 C1338.57181,181.410877 1340.56438,178.446104 1340.54982,175.485119 C1340.53539,172.548917 1340.55911,138.453932 1340.54987,135.496848 C1340.54068,132.556728 1342.53871,139.1683 1334.57142,143.672382 Z" id="path-2"></path>
        <mask id="mask-3" maskContentUnits="userSpaceOnUse" maskUnits="objectBoundingBox" x="-5" y="-5" width="311.442403" height="154.971537">
            <rect x="1034.32392" y="91.3884755" width="311.442403" height="154.971537" fill="white"></rect>
            <use xlink:href="#path-2" fill="black"></use>
        </mask>
    </defs>
    <g id="Illustration" stroke="none" stroke-width="1" fill="none" fill-rule="evenodd">
        <g id="Encrypted-Email-1" transform="translate(-1034.000000, -91.000000)">
            <g id="inbox_left_blue_front" transform="translate(1190.045124, 168.874244) rotate(-360.000000) translate(-1190.045124, -168.874244) ">
                <use fill="url(#linearGradient-1)" fill-rule="evenodd" xlink:href="#path-2"></use>
                <use stroke="#0247DC" mask="url(#mask-3)" stroke-width="10" xlink:href="#path-2"></use>
            </g>
        </g>
    </g>
</svg>