<?xml version="1.0" encoding="UTF-8"?>
<svg width="313px" height="221px" viewBox="0 0 313 221" version="1.1" xmlns="http://www.w3.org/2000/svg" xmlns:xlink="http://www.w3.org/1999/xlink">
    <!-- Generator: Sketch 40.3 (33839) - http://www.bohemiancoding.com/sketch -->
    <title>inbox_left_blue_back</title>
    <desc>Created with Sketch.</desc>
    <defs>
        <linearGradient x1="44.4736689%" y1="20.1862914%" x2="33.5698141%" y2="20.1862916%" id="linearGradient-1">
            <stop stop-color="#FFFFFF" offset="0%"></stop>
            <stop stop-color="#80A2ED" offset="100%"></stop>
        </linearGradient>
        <path d="M0.564404868,105.992629 C0.538650085,108.958509 2.52970513,111.927698 6.53688153,114.189631 L170.937658,206.988999 C178.906852,211.487374 191.830042,211.482769 199.805856,206.980658 L296.016884,152.672382 C300.023304,150.410877 302.018883,147.446104 302.004305,144.485119 C301.989849,141.548917 302.01361,107.453932 302.004352,104.496848 C301.995148,101.556728 300.004027,98.6194227 296.031661,96.3771396 L131.630885,3.57777085 C123.66169,-0.920603412 110.7385,-0.915998384 102.762687,3.58611203 L6.55165854,57.8943877 C2.51832309,60.1710861 0.522937718,63.1605326 0.564803458,66.1413258 C0.605762374,69.057554 0.589859498,103.061313 0.564404868,105.992629 Z" id="path-2"></path>
        <mask id="mask-3" maskContentUnits="userSpaceOnUse" maskUnits="objectBoundingBox" x="-5" y="-5" width="311.442403" height="220.153254">
            <rect x="-4.4358418" y="-4.79324206" width="311.442403" height="220.153254" fill="white"></rect>
            <use xlink:href="#path-2" fill="black"></use>
        </mask>
        <linearGradient x1="100%" y1="35.5632305%" x2="0%" y2="35.5632294%" id="linearGradient-4">
            <stop stop-color="#FFFFFF" offset="0%"></stop>
            <stop stop-color="#80A2ED" offset="100%"></stop>
        </linearGradient>
        <path d="M6.53688153,114.189631 L170.937658,206.988999 C178.906852,211.487374 191.830042,211.482769 199.805856,206.980658 L296.016884,152.672382 C300.023304,150.410877 302.018883,147.446104 302.004305,144.485119 C301.995148,141.556728 300.004027,138.619423 296.031661,136.37714 L131.630885,43.5777708 C123.66169,39.0793966 110.7385,39.0840016 102.762687,43.586112 L6.55165854,97.8943877 C2.51832309,100.171086 0.522937718,103.160533 0.564803458,106.141326 C0.538650085,108.958509 2.52970513,111.927698 6.53688153,114.189631 Z" id="path-5"></path>
        <mask id="mask-6" maskContentUnits="userSpaceOnUse" maskUnits="objectBoundingBox" x="0" y="0" width="301.440226" height="170.153254" fill="white">
            <use xlink:href="#path-5"></use>
        </mask>
    </defs>
    <g id="Illustration" stroke="none" stroke-width="1" fill="none" fill-rule="evenodd">
        <g id="Encrypted-Email-1" transform="translate(-1034.000000, -26.000000)">
            <g id="inbox_left_blue_back" transform="translate(1039.000000, 31.000000)">
                <g id="Combined-Shape" transform="translate(151.285360, 105.283385) rotate(-360.000000) translate(-151.285360, -105.283385) ">
                    <use fill="url(#linearGradient-1)" fill-rule="evenodd" xlink:href="#path-2"></use>
                    <use stroke="#0247DC" mask="url(#mask-3)" stroke-width="10" xlink:href="#path-2"></use>
                </g>
                <use id="Combined-Shape-Copy-3" stroke="#0247DC" mask="url(#mask-6)" stroke-width="10" stroke-linecap="round" stroke-linejoin="round" fill="url(#linearGradient-4)" transform="translate(151.284271, 125.283385) rotate(-360.000000) translate(-151.284271, -125.283385) " xlink:href="#path-5"></use>
            </g>
        </g>
    </g>
</svg>