<?xml version="1.0" encoding="UTF-8"?>
<svg width="612px" height="385px" viewBox="0 0 612 385" version="1.1" xmlns="http://www.w3.org/2000/svg" xmlns:xlink="http://www.w3.org/1999/xlink">
    <!-- Generator: Sketch 40.3 (33839) - http://www.bohemiancoding.com/sketch -->
    <title>laptop_base</title>
    <desc>Created with Sketch.</desc>
    <defs>
        <linearGradient x1="32.5060313%" y1="93.4365571%" x2="50%" y2="93.4365571%" id="linearGradient-1">
            <stop stop-color="#FFFFFF" offset="0%"></stop>
            <stop stop-color="#80A2ED" offset="100%"></stop>
        </linearGradient>
        <path d="M582.549988,151.39465 L373.480697,30.0539249 C364.496142,24.8394221 349.933645,24.8395331 340.951651,30.0525492 L19.4499998,216.647355 L19.4499998,208 L0.449999809,208 L0.449999809,232.5 L0.490159633,232.5 C0.163679684,236.145339 2.40103728,239.853294 7.19938431,242.638184 L228.519303,371.088993 C237.503858,376.303495 252.066355,376.303384 261.048349,371.090368 L594.802986,177.384111 C599.052834,174.917562 601.291622,171.728269 601.521324,168.5 L601.549988,168.5 L601.549988,144 L582.549988,144 L582.549988,151.39465 Z" id="path-2"></path>
        <mask id="mask-3" maskContentUnits="userSpaceOnUse" maskUnits="objectBoundingBox" x="-5" y="-5" width="611.099988" height="358.857083">
            <rect x="-4.55000019" y="21.1429174" width="611.099988" height="358.857083" fill="white"></rect>
            <use xlink:href="#path-2" fill="black"></use>
        </mask>
        <path d="M7.19701409,197.758807 L340.951651,4.05254922 C349.933645,-1.16046694 364.496142,-1.16057788 373.480697,4.05392486 L594.800616,132.504734 C603.783918,137.71851 603.790938,146.167636 594.802986,151.384111 L261.048349,345.090368 C252.066355,350.303384 237.503858,350.303495 228.519303,345.088993 L7.19938431,216.638184 C-1.78391808,211.424408 -1.7909379,202.975281 7.19701409,197.758807 Z" id="path-4"></path>
        <mask id="mask-5" maskContentUnits="userSpaceOnUse" maskUnits="objectBoundingBox" x="-5" y="-5" width="611.082043" height="358.857083">
            <rect x="-4.54102165" y="-4.85708256" width="611.082043" height="358.857083" fill="white"></rect>
            <use xlink:href="#path-4" fill="black"></use>
        </mask>
        <path d="M33.3653189,203.911614 L352.260006,18.8298521 C355.387092,17.0149377 360.454937,17.0136822 363.574762,18.824383 L487.326824,90.6482503 C490.448706,92.4601442 490.440909,95.4023302 487.317401,97.2151677 L168.422714,282.29693 C165.295628,284.111844 160.227784,284.1131 157.107958,282.302399 L33.3558957,210.478531 C30.2340141,208.666638 30.2418116,205.724452 33.3653189,203.911614 Z" id="path-6"></path>
        <mask id="mask-7" maskContentUnits="userSpaceOnUse" maskUnits="objectBoundingBox" x="0" y="0" width="458.645556" height="266.19176" fill="white">
            <use xlink:href="#path-6"></use>
        </mask>
        <path d="M285.794612,224.025479 L386.208959,165.746476 C390.112771,163.480762 396.437449,163.478063 400.342784,165.744662 L466.822259,204.328366 C470.724343,206.593078 470.719326,210.267814 466.819132,212.531429 L366.404785,270.810432 C362.500974,273.076146 356.176295,273.078845 352.27096,270.812246 L285.791486,232.228542 C281.889401,229.96383 281.894418,226.289094 285.794612,224.025479 Z" id="path-8"></path>
        <mask id="mask-9" maskContentUnits="userSpaceOnUse" maskUnits="objectBoundingBox" x="0" y="0" width="186.879357" height="108.465005" fill="white">
            <use xlink:href="#path-8"></use>
        </mask>
    </defs>
    <g id="Illustration" stroke="none" stroke-width="1" fill="none" fill-rule="evenodd">
        <g id="Encrypted-Email-1" transform="translate(-194.000000, -608.000000)">
            <g id="laptop_base" transform="translate(199.000000, 613.000000)">
                <g id="macbook-copy">
                    <g id="Group-2">
                        <g id="Combined-Shape">
                            <use fill="url(#linearGradient-1)" fill-rule="evenodd" xlink:href="#path-2"></use>
                            <use stroke="#0247DC" mask="url(#mask-3)" stroke-width="10" xlink:href="#path-2"></use>
                        </g>
                        <g id="Combined-Shape-Copy">
                            <use fill="#FFFFFF" fill-rule="evenodd" xlink:href="#path-4"></use>
                            <use stroke="#0247DC" mask="url(#mask-5)" stroke-width="10" stroke-linecap="round" stroke-linejoin="round" xlink:href="#path-4"></use>
                        </g>
                        <path d="M78.6196705,226.073187 L103.358901,211.714904 C104.923624,210.806762 107.455742,210.803977 109.024412,211.71441 L121.744528,219.096977 C123.308781,220.004846 123.309078,221.476621 121.743678,222.385156 L97.0044468,236.74344 C95.4397245,237.651582 92.9076064,237.654366 91.338936,236.743933 L78.6188207,229.361366 C77.0545678,228.453497 77.0542699,226.981723 78.6196705,226.073187 Z" id="Path" fill="#0247DC"></path>
                        <path d="M111.847855,206.788041 L125.285046,198.989293 C126.846546,198.083022 129.376052,198.081753 130.944723,198.992186 L143.664838,206.374753 C145.229091,207.282622 145.229711,208.754209 143.669823,209.659546 L130.232631,217.458293 C128.671131,218.364564 126.141625,218.365833 124.572955,217.4554 L111.852839,210.072833 C110.288586,209.164964 110.287966,207.693377 111.847855,206.788041 Z" id="Path" fill="#0247DC"></path>
                        <path d="M155.688475,181.343593 L169.125667,173.544845 C170.687167,172.638574 173.216673,172.637305 174.785343,173.547738 L187.505458,180.930305 C189.069711,181.838175 189.070331,183.309761 187.510443,184.215098 L174.073251,192.013845 C172.511751,192.920117 169.982246,192.921385 168.413575,192.010952 L155.69346,184.628385 C154.129207,183.720516 154.128587,182.248929 155.688475,181.343593 Z" id="Path" fill="#0247DC"></path>
                        <path d="M177.608785,168.621369 L191.045977,160.822621 C192.607477,159.91635 195.136983,159.915081 196.705653,160.825514 L209.425768,168.208081 C210.990021,169.115951 210.990642,170.587538 209.430753,171.492874 L195.993562,179.291621 C194.432062,180.197893 191.902556,180.199161 190.333885,179.288728 L177.61377,171.906161 C176.049517,170.998292 176.048897,169.526705 177.608785,168.621369 Z" id="Path" fill="#0247DC"></path>
                        <path d="M133.768165,194.065817 L147.205356,186.267069 C148.766856,185.360798 151.296362,185.359529 152.865033,186.269962 L165.585148,193.652529 C167.149401,194.560399 167.150021,196.031985 165.590133,196.937322 L152.152941,204.736069 C150.591441,205.64234 148.061935,205.643609 146.493265,204.733176 L133.77315,197.350609 C132.208897,196.44274 132.208276,194.971153 133.768165,194.065817 Z" id="Path" fill="#0247DC"></path>
                        <path d="M221.449406,143.176921 L234.886597,135.378173 C236.448097,134.471902 238.977603,134.470633 240.546274,135.381066 L253.266389,142.763633 C254.830642,143.671503 254.831262,145.14309 253.271374,146.048426 L239.834182,153.847173 C238.272682,154.753445 235.743176,154.754713 234.174506,153.84428 L221.454391,146.461713 C219.890138,145.553844 219.889517,144.082257 221.449406,143.176921 Z" id="Path" fill="#0247DC"></path>
                        <path d="M244.076823,130.044302 L257.514014,122.245555 C259.075514,121.339284 261.60502,121.338015 263.173691,122.248448 L275.893806,129.631015 C277.458059,130.538884 277.458679,132.010471 275.898791,132.915807 L262.461599,140.714555 C260.900099,141.620826 258.370593,141.622095 256.801923,140.711662 L244.081808,133.329095 C242.517555,132.421226 242.516934,130.949639 244.076823,130.044302 Z" id="Path" fill="#0247DC"></path>
                        <path d="M354.385481,66.0227882 L367.822672,58.2240408 C369.384172,57.3177693 371.913678,57.3165008 373.482348,58.2269339 L386.202464,65.6095007 C387.766717,66.51737 387.767337,67.988957 386.207449,68.8942932 L372.770257,76.6930405 C371.208757,77.599312 368.679251,77.6005805 367.110581,76.6901474 L354.390465,69.3075806 C352.826212,68.3997113 352.825592,66.9281243 354.385481,66.0227882 Z" id="Path" fill="#0247DC"></path>
                        <path d="M287.917443,104.599854 L301.354635,96.8011071 C302.916135,95.8948356 305.445641,95.8935671 307.014311,96.8040002 L319.734426,104.186567 C321.298679,105.094436 321.2993,106.566023 319.739411,107.471359 L306.302219,115.270107 C304.74072,116.176378 302.211214,116.177647 300.642543,115.267214 L287.922428,107.884647 C286.358175,106.976778 286.357555,105.505191 287.917443,104.599854 Z" id="Path" fill="#0247DC"></path>
                        <path d="M332.46517,78.7450121 L345.902362,70.9462648 C347.463862,70.0399933 349.993368,70.0387248 351.562038,70.9491579 L364.282154,78.3317247 C365.846406,79.239594 365.847027,80.711181 364.287138,81.6165171 L350.849947,89.4152645 C349.288447,90.321536 346.758941,90.3228045 345.19027,89.4123714 L332.470155,82.0298046 C330.905902,81.1219353 330.905282,79.6503483 332.46517,78.7450121 Z" id="Path" fill="#0247DC"></path>
                        <path d="M377.012898,52.8901699 L390.450089,45.0914225 C392.011589,44.185151 394.541095,44.1838825 396.109765,45.0943156 L408.829881,52.4768824 C410.394134,53.3847517 410.394754,54.8563387 408.834866,55.7616748 L395.397674,63.5604222 C393.836174,64.4666937 391.306668,64.4679622 389.737998,63.5575291 L377.017882,56.1749623 C375.453629,55.267093 375.453009,53.795506 377.012898,52.8901699 Z" id="Path" fill="#0247DC"></path>
                        <path d="M265.997133,117.322078 L279.434325,109.523331 C280.995825,108.61706 283.52533,108.615791 285.094001,109.526224 L297.814116,116.908791 C299.378369,117.81666 299.378989,119.288247 297.819101,120.193583 L284.381909,127.992331 C282.820409,128.898602 280.290903,128.899871 278.722233,127.989438 L266.002118,120.606871 C264.437865,119.699002 264.437245,118.227415 265.997133,117.322078 Z" id="Path" fill="#0247DC"></path>
                        <path d="M199.529095,155.899145 L212.966287,148.100397 C214.527787,147.194126 217.057293,147.192857 218.625963,148.10329 L231.346079,155.485857 C232.910332,156.393727 232.910952,157.865314 231.351063,158.77065 L217.913872,166.569397 C216.352372,167.475669 213.822866,167.476937 212.254196,166.566504 L199.53408,159.183937 C197.969827,158.276068 197.969207,156.804481 199.529095,155.899145 Z" id="Path" fill="#0247DC"></path>
                        <path d="M309.837753,91.8776305 L323.274945,84.0788831 C324.836445,83.1726116 327.365951,83.1713431 328.934621,84.0817762 L341.654737,91.464343 C343.218989,92.3722123 343.21961,93.8437993 341.659721,94.7491354 L328.22253,102.547883 C326.66103,103.454154 324.131524,103.455423 322.562853,102.54499 L309.842738,95.1624229 C308.278485,94.2545536 308.277865,92.7829666 309.837753,91.8776305 Z" id="Path" fill="#0247DC"></path>
                        <path d="M43.257343,205.557527 L57.4039491,197.347046 C58.9648118,196.441145 61.4990097,196.443199 63.0585824,197.348352 L68.0083013,200.221096 C69.5704064,201.127718 69.5681081,202.598978 68.0105509,203.502961 L53.8639447,211.713442 C52.303082,212.619344 49.7688841,212.61729 48.2093114,211.712137 L43.2595926,208.839393 C41.6974875,207.93277 41.6997857,206.461511 43.257343,205.557527 Z" id="Path" fill="#0247DC"></path>
                        <path d="M65.88476,192.424909 L80.0313661,184.214428 C81.5922288,183.308526 84.1264267,183.310581 85.6859994,184.215734 L90.6357183,187.088477 C92.1978234,187.9951 92.1955251,189.46636 90.6379679,190.370343 L76.4913617,198.580824 C74.930499,199.486725 72.3963011,199.484671 70.8367284,198.579518 L65.8870096,195.706775 C64.3249045,194.800152 64.3272027,193.328892 65.88476,192.424909 Z" id="Path" fill="#0247DC"></path>
                        <path d="M89.2192838,178.881896 L103.36589,170.671415 C104.926753,169.765514 107.46095,169.767568 109.020523,170.672721 L113.970242,173.545465 C115.532347,174.452087 115.530049,175.923347 113.972492,176.82733 L99.8258855,185.037811 C98.2650228,185.943713 95.7308249,185.941659 94.1712522,185.036506 L89.2215333,182.163762 C87.6594283,181.257139 87.6617265,179.78588 89.2192838,178.881896 Z" id="Path" fill="#0247DC"></path>
                        <path d="M111.846701,165.749278 L125.993307,157.538797 C127.55417,156.632895 130.088367,156.63495 131.64794,157.540103 L136.597659,160.412846 C138.159764,161.319469 138.157466,162.790729 136.599909,163.694712 L122.453302,171.905193 C120.89244,172.811095 118.358242,172.80904 116.798669,171.903887 L111.84895,169.031144 C110.286845,168.124521 110.289144,166.653261 111.846701,165.749278 Z" id="Path" fill="#0247DC"></path>
                        <path d="M135.181225,152.206265 L149.327831,143.995784 C150.888693,143.089883 153.422891,143.091937 154.982464,143.99709 L159.932183,146.869834 C161.494288,147.776456 161.49199,149.247716 159.934432,150.151699 L145.787826,158.36218 C144.226964,159.268082 141.692766,159.266028 140.133193,158.360875 L135.183474,155.488131 C133.621369,154.581508 133.623667,153.110249 135.181225,152.206265 Z" id="Path" fill="#0247DC"></path>
                        <path d="M157.808642,139.073647 L171.955248,130.863166 C173.51611,129.957264 176.050308,129.959319 177.609881,130.864472 L182.5596,133.737215 C184.121705,134.643838 184.119407,136.115098 182.561849,137.019081 L168.415243,145.229562 C166.854381,146.135464 164.320183,146.133409 162.76061,145.228256 L157.810891,142.355513 C156.248786,141.44889 156.251084,139.97763 157.808642,139.073647 Z" id="Path" fill="#0247DC"></path>
                        <path d="M180.436059,125.941029 L194.582665,117.730548 C196.143527,116.824646 198.677725,116.8267 200.237298,117.731853 L205.187017,120.604597 C206.749122,121.51122 206.746824,122.982479 205.189266,123.886463 L191.04266,132.096944 C189.481798,133.002845 186.9476,133.000791 185.388027,132.095638 L180.438308,129.222894 C178.876203,128.316272 178.878501,126.845012 180.436059,125.941029 Z" id="Path" fill="#0247DC"></path>
                        <path d="M203.063476,112.808411 L217.210082,104.597929 C218.770944,103.692028 221.305142,103.694082 222.864715,104.599235 L227.814434,107.471979 C229.376539,108.378601 229.374241,109.849861 227.816683,110.753844 L213.670077,118.964325 C212.109215,119.870227 209.575017,119.868173 208.015444,118.96302 L203.065725,116.090276 C201.50362,115.183653 201.505918,113.712394 203.063476,112.808411 Z" id="Path" fill="#0247DC"></path>
                        <path d="M226.397999,99.2653979 L240.544605,91.0549169 C242.105468,90.1490152 244.639666,90.1510695 246.199239,91.0562225 L251.148958,93.9289661 C252.711063,94.8355888 252.708764,96.3068485 251.151207,97.2108317 L237.004601,105.421313 C235.443738,106.327214 232.90954,106.32516 231.349968,105.420007 L226.400249,102.547264 C224.838144,101.640641 224.840442,100.169381 226.397999,99.2653979 Z" id="Path" fill="#0247DC"></path>
                        <path d="M249.025416,86.1327796 L263.172022,77.9222986 C264.732885,77.0163969 267.267083,77.0184512 268.826656,77.9236042 L273.776375,80.7963478 C275.33848,81.7029705 275.336181,83.1742302 273.778624,84.0782134 L259.632018,92.2886945 C258.071155,93.1945961 255.536957,93.1925418 253.977385,92.2873888 L249.027666,89.4146452 C247.465561,88.5080225 247.467859,87.0367628 249.025416,86.1327796 Z" id="Path" fill="#0247DC"></path>
                        <path d="M272.35994,72.589767 L286.506546,64.3792859 C288.067409,63.4733843 290.601607,63.4754386 292.16118,64.3805915 L297.110898,67.2533352 C298.673003,68.1599579 298.670705,69.6312175 297.113148,70.5352008 L282.966542,78.7456818 C281.405679,79.6515834 278.871481,79.6495292 277.311909,78.7443762 L272.36219,75.8716326 C270.800085,74.9650099 270.802383,73.4937502 272.35994,72.589767 Z" id="Path" fill="#0247DC"></path>
                        <path d="M78.6138359,200.632126 L92.0510276,192.833378 C93.6125275,191.927107 96.1420334,191.925838 97.7107038,192.836272 L110.430819,200.218838 C111.995072,201.126708 111.995692,202.598295 110.435804,203.503631 L96.9986122,211.302378 C95.4371123,212.20865 92.9076064,212.209918 91.338936,211.299485 L78.6188207,203.916918 C77.0545678,203.009049 77.0539475,201.537462 78.6138359,200.632126 Z" id="Path" fill="#0247DC"></path>
                        <path d="M56.6935257,213.35435 L70.1307173,205.555602 C71.6922173,204.649331 74.2217232,204.648062 75.7903936,205.558496 L88.5105088,212.941062 C90.0747618,213.848932 90.0753821,215.320519 88.5154937,216.225855 L75.078302,224.024602 C73.5168021,224.930874 70.9872962,224.932142 69.4186258,224.021709 L56.6985105,216.639142 C55.1342575,215.731273 55.1336373,214.259686 56.6935257,213.35435 Z" id="Path" fill="#0247DC"></path>
                        <path d="M101.241253,187.499507 L114.678445,179.70076 C116.239944,178.794489 118.76945,178.79322 120.338121,179.703653 L133.058236,187.08622 C134.622489,187.994089 134.623109,189.465676 133.063221,190.371012 L119.626029,198.16976 C118.064529,199.076031 115.535023,199.0773 113.966353,198.166867 L101.246238,190.7843 C99.6819848,189.876431 99.6813645,188.404844 101.241253,187.499507 Z" id="Path" fill="#0247DC"></path>
                        <path d="M167.002184,149.332836 L180.439375,141.534088 C182.000875,140.627817 184.530381,140.626548 186.099051,141.536981 L198.819167,148.919548 C200.38342,149.827417 200.38404,151.299004 198.824152,152.204341 L185.38696,160.003088 C183.82546,160.909359 181.295954,160.910628 179.727284,160.000195 L167.007168,152.617628 C165.442915,151.709759 165.442295,150.238172 167.002184,149.332836 Z" id="Path" fill="#0247DC"></path>
                        <path d="M123.161563,174.777284 L136.598755,166.978536 C138.160255,166.072265 140.689761,166.070996 142.258431,166.981429 L154.978546,174.363996 C156.542799,175.271865 156.543419,176.743452 154.983531,177.648789 L141.546339,185.447536 C139.98484,186.353807 137.455334,186.355076 135.886663,185.444643 L123.166548,178.062076 C121.602295,177.154207 121.601675,175.68262 123.161563,174.777284 Z" id="Path" fill="#0247DC"></path>
                        <path d="M343.784713,46.7308687 L368.523944,32.3725848 C370.088667,31.4644431 372.620785,31.4616585 374.189455,32.3720916 L386.909571,39.7546584 C388.473823,40.6625277 388.474121,42.1343018 386.908721,43.0428372 L362.16949,57.4011211 C360.604767,58.3092628 358.072649,58.3120474 356.503979,57.4016143 L343.783864,50.0190474 C342.219611,49.1111782 342.219313,47.6394041 343.784713,46.7308687 Z" id="Path" fill="#0247DC"></path>
                        <path d="M340.949298,32.7815178 L355.095904,24.5710367 C356.656767,23.6651351 359.190965,23.6671893 360.750537,24.5723423 L365.700256,27.4450859 C367.262361,28.3517086 367.260063,29.8229683 365.702506,30.7269515 L351.5559,38.9374326 C349.995037,39.8433342 347.460839,39.8412799 345.901266,38.936127 L340.951547,36.0633833 C339.389442,35.1567606 339.391741,33.685501 340.949298,32.7815178 Z" id="Path" fill="#0247DC"></path>
                        <path d="M318.321881,45.9141361 L332.468487,37.703655 C334.02935,36.7977534 336.563548,36.7998077 338.12312,37.7049606 L343.072839,40.5777043 C344.634944,41.4843269 344.632646,42.9555866 343.075089,43.8595698 L328.928483,52.0700509 C327.36762,52.9759525 324.833422,52.9738982 323.273849,52.0687453 L318.32413,49.1960016 C316.762025,48.2893789 316.764324,46.8181193 318.321881,45.9141361 Z" id="Path" fill="#0247DC"></path>
                        <path d="M294.987357,59.4571487 L309.133963,51.2466676 C310.694826,50.340766 313.229024,50.3428203 314.788597,51.2479732 L319.738315,54.1207169 C321.30042,55.0273396 321.298122,56.4985992 319.740565,57.4025825 L305.593959,65.6130635 C304.033096,66.5189651 301.498898,66.5169109 299.939326,65.6117579 L294.989607,62.7390143 C293.427502,61.8323916 293.4298,60.3611319 294.987357,59.4571487 Z" id="Path" fill="#0247DC"></path>
                        <path d="M145.081873,162.05506 L158.519065,154.256312 C160.080565,153.350041 162.610071,153.348772 164.178741,154.259205 L176.898856,161.641772 C178.463109,162.549641 178.46373,164.021228 176.903841,164.926565 L163.46665,172.725312 C161.90515,173.631583 159.375644,173.632852 157.806973,172.722419 L145.086858,165.339852 C143.522605,164.431983 143.521985,162.960396 145.081873,162.05506 Z" id="Path" fill="#0247DC"></path>
                        <path d="M210.842804,123.888388 L224.279996,116.08964 C225.841496,115.183369 228.371001,115.1821 229.939672,116.092533 L242.659787,123.4751 C244.22404,124.382969 244.22466,125.854556 242.664772,126.759893 L229.22758,134.55864 C227.66608,135.464911 225.136574,135.46618 223.567904,134.555747 L210.847789,127.17318 C209.283536,126.265311 209.282916,124.793724 210.842804,123.888388 Z" id="Path" fill="#0247DC"></path>
                        <path d="M188.922494,136.610612 L202.359685,128.811864 C203.921185,127.905593 206.450691,127.904324 208.019362,128.814757 L220.739477,136.197324 C222.30373,137.105193 222.30435,138.57678 220.744462,139.482117 L207.30727,147.280864 C205.74577,148.187135 203.216264,148.188404 201.647594,147.277971 L188.927479,139.895404 C187.363226,138.987535 187.362605,137.515948 188.922494,136.610612 Z" id="Path" fill="#0247DC"></path>
                        <path d="M255.390531,98.0335453 L268.827723,90.2347979 C270.389223,89.3285264 272.918729,89.3272579 274.487399,90.237691 L287.207514,97.6202578 C288.771767,98.5281271 288.772388,99.9997141 287.212499,100.90505 L273.775308,108.703798 C272.213808,109.610069 269.684302,109.611338 268.115631,108.700905 L255.395516,101.318338 C253.831263,100.410468 253.830643,98.9388815 255.390531,98.0335453 Z" id="Path" fill="#0247DC"></path>
                        <path d="M233.470221,110.755769 L246.907413,102.957022 C248.468913,102.05075 250.998418,102.049482 252.567089,102.959915 L265.287204,110.342482 C266.851457,111.250351 266.852077,112.721938 265.292189,113.627274 L251.854997,121.426022 C250.293497,122.332293 247.763991,122.333562 246.195321,121.423129 L233.475206,114.040562 C231.910953,113.132692 231.910333,111.661105 233.470221,110.755769 Z" id="Path" fill="#0247DC"></path>
                        <path d="M381.257952,75.0500622 L411.660879,57.4046531 C413.223712,56.4976079 415.754299,56.4957121 417.322969,57.4061452 L430.043084,64.7887121 C431.607337,65.6965814 431.613078,67.1651962 430.045655,68.0749055 L399.642728,85.7203146 C398.079895,86.6273598 395.549309,86.6292556 393.980638,85.7188225 L381.260523,78.3362557 C379.69627,77.4283864 379.690529,75.9597716 381.257952,75.0500622 Z" id="Path" fill="#0247DC"></path>
                        <path d="M182.558533,190.372268 L195.995724,182.57352 C197.557224,181.667249 200.08673,181.66598 201.655401,182.576413 L214.375516,189.95898 C215.939769,190.86685 215.940389,192.338437 214.380501,193.243773 L200.943309,201.04252 C199.381809,201.948792 196.852303,201.95006 195.283633,201.039627 L182.563518,193.65706 C180.999265,192.749191 180.998644,191.277604 182.558533,190.372268 Z" id="Path" fill="#0247DC"></path>
                        <path d="M292.867191,126.350754 L306.304382,118.552006 C307.865882,117.645735 310.395388,117.644466 311.964059,118.554899 L324.684174,125.937466 C326.248427,126.845335 326.249047,128.316922 324.689159,129.222258 L311.251967,137.021006 C309.690467,137.927277 307.160961,137.928546 305.592291,137.018113 L292.872175,129.635546 C291.307922,128.727677 291.307302,127.25609 292.867191,126.350754 Z" id="Path" fill="#0247DC"></path>
                        <path d="M314.787501,113.62853 L328.224692,105.829782 C329.786192,104.923511 332.315698,104.922242 333.884369,105.832675 L346.604484,113.215242 C348.168737,114.123111 348.169357,115.594698 346.609469,116.500035 L333.172277,124.298782 C331.610777,125.205053 329.081271,125.206322 327.512601,124.295889 L314.792486,116.913322 C313.228233,116.005453 313.227612,114.533866 314.787501,113.62853 Z" id="Path" fill="#0247DC"></path>
                        <path d="M259.633172,171.083735 L273.070364,163.284987 C274.631863,162.378716 277.161369,162.377447 278.73004,163.28788 L291.450155,170.670447 C293.014408,171.578316 293.015028,173.049903 291.45514,173.95524 L278.017948,181.753987 C276.456448,182.660258 273.926942,182.661527 272.358272,181.751094 L259.638157,174.368527 C258.073904,173.460658 258.073283,171.989071 259.633172,171.083735 Z" id="Path" fill="#0247DC"></path>
                        <path d="M348.02152,119.784444 L361.458711,111.985697 C363.020211,111.079425 365.549717,111.078157 367.118387,111.98859 L379.838503,119.371157 C381.402756,120.279026 381.403376,121.750613 379.843488,122.655949 L366.406296,130.454697 C364.844796,131.360968 362.31529,131.362237 360.74662,130.451804 L348.026504,123.069237 C346.462251,122.161367 346.461631,120.689781 348.02152,119.784444 Z" id="Path" fill="#0247DC"></path>
                        <path d="M454.087537,97.623151 L467.524728,89.8244036 C469.086228,88.9181321 471.620585,88.919679 473.185101,89.8277006 L476.711436,91.8743334 C478.276073,92.7824258 478.277005,94.2541936 476.717117,95.1595298 L463.279925,102.958277 C461.718425,103.864549 459.184068,103.863002 457.619553,102.95498 L454.093218,100.908347 C452.52858,100.000255 452.527648,98.5284871 454.087537,97.623151 Z" id="Path" fill="#0247DC"></path>
                        <path d="M410.246916,123.067599 L423.684108,115.268852 C425.245608,114.36258 427.779965,114.364127 429.34448,115.272149 L432.870815,117.318781 C434.435453,118.226874 434.436385,119.698642 432.876496,120.603978 L419.439304,128.402725 C417.877805,129.308997 415.343448,129.30745 413.778932,128.399428 L410.252597,126.352795 C408.68796,125.444703 408.687028,123.972935 410.246916,123.067599 Z" id="Path" fill="#0247DC"></path>
                        <path d="M165.58797,250.289839 L179.025162,242.491091 C180.586662,241.58482 183.125783,241.589132 184.684522,242.493801 L200.940803,251.928706 C202.504881,252.836474 202.50536,254.307979 200.945472,255.213315 L187.50828,263.012063 C185.94678,263.918334 183.407658,263.914022 181.848919,263.009353 L165.592639,253.574448 C164.028561,252.66668 164.028082,251.195175 165.58797,250.289839 Z" id="Path" fill="#0247DC"></path>
                        <path d="M142.960553,263.422457 L156.397745,255.62371 C157.959245,254.717438 160.498366,254.721751 162.057105,255.62642 L178.313386,265.061324 C179.877464,265.969093 179.877943,267.440598 178.318055,268.345934 L164.880863,276.144681 C163.319363,277.050953 160.780241,277.04664 159.221502,276.141971 L142.965222,266.707066 C141.401144,265.799298 141.400665,264.327793 142.960553,263.422457 Z" id="Path" fill="#0247DC"></path>
                        <path d="M188.215387,237.15722 L201.652579,229.358473 C203.214079,228.452202 205.7532,228.456514 207.311939,229.361183 L223.56822,238.796088 C225.132298,239.703856 225.132777,241.175361 223.572889,242.080697 L210.135697,249.879444 C208.574197,250.785716 206.035075,250.781404 204.476336,249.876734 L188.220056,240.44183 C186.655978,239.534062 186.655499,238.062557 188.215387,237.15722 Z" id="Path" fill="#0247DC"></path>
                        <path d="M210.841764,224.025206 L228.523676,213.762885 C230.084602,212.856947 232.623258,212.86153 234.181997,213.766199 L250.438277,223.201104 C252.002356,224.108872 251.999156,225.582512 250.443986,226.485109 L232.762074,236.74743 C231.201149,237.653368 228.662492,237.648785 227.103753,236.744116 L210.847473,227.309211 C209.283395,226.401443 209.286595,224.927803 210.841764,224.025206 Z" id="Path" fill="#0247DC"></path>
                        <path d="M374.891577,128.813119 L388.328769,121.014372 C389.890269,120.108101 392.429391,120.112413 393.98813,121.017082 L410.24441,130.451987 C411.808488,131.359755 411.808968,132.83126 410.249079,133.736596 L396.811887,141.535343 C395.250388,142.441615 392.711266,142.437302 391.152527,141.532633 L374.896247,132.097729 C373.332168,131.189961 373.331689,129.718456 374.891577,128.813119 Z" id="Path" fill="#0247DC"></path>
                        <path d="M432.167227,110.345375 L445.604418,102.546628 C447.165918,101.640356 449.700275,101.641903 451.26479,102.549925 L454.791126,104.596557 C456.355763,105.50465 456.356695,106.976418 454.796806,107.881754 L441.359615,115.680501 C439.798115,116.586773 437.263758,116.585226 435.699242,115.677204 L432.172907,113.630571 C430.60827,112.722479 430.607338,111.250711 432.167227,110.345375 Z" id="Path" fill="#0247DC"></path>
                        <path d="M420.146411,103.368671 L433.583603,95.5699241 C435.145103,94.6636526 437.67946,94.6651995 439.243975,95.5732211 L442.77031,97.6198539 C444.334948,98.5279463 444.335879,99.9997141 442.775991,100.90505 L429.338799,108.703798 C427.777299,109.610069 425.242943,109.608522 423.678427,108.700501 L420.152092,106.653868 C418.587455,105.745775 418.586523,104.274008 420.146411,103.368671 Z" id="Path" fill="#0247DC"></path>
                        <path d="M348.02048,144.408707 L365.702392,134.146387 C367.263317,133.240449 369.801974,133.245031 371.360713,134.1497 L387.616993,143.584605 C389.181071,144.492373 389.177871,145.966014 387.622702,146.868611 L369.94079,157.130931 C368.379864,158.036869 365.841208,158.032287 364.282469,157.127618 L348.026189,147.692713 C346.46211,146.784945 346.46531,145.311304 348.02048,144.408707 Z" id="Path" fill="#0247DC"></path>
                        <path d="M237.011764,208.836525 L338.825285,149.745462 C340.390104,148.837265 342.931916,148.840016 344.490655,149.744685 L360.746935,159.179589 C362.311014,160.087357 362.315941,161.556281 360.745595,162.467686 L258.932074,221.558749 C257.367256,222.466946 254.825443,222.464195 253.266704,221.559526 L237.010424,212.124622 C235.446346,211.216853 235.441418,209.74793 237.011764,208.836525 Z" id="Path" fill="#0247DC"></path>
                        <path d="M326.101209,132.506668 L339.538401,124.707921 C341.099901,123.801649 343.629407,123.800381 345.198077,124.710814 L357.918192,132.093381 C359.482445,133.00125 359.483066,134.472837 357.923177,135.378173 L344.485986,143.176921 C342.924486,144.083192 340.39498,144.084461 338.826309,143.174028 L326.106194,135.791461 C324.541941,134.883591 324.541321,133.412005 326.101209,132.506668 Z" id="Path" fill="#0247DC"></path>
                        <path d="M370.648937,106.651826 L384.086128,98.8530787 C385.647628,97.9468072 388.177134,97.9455387 389.745804,98.8559718 L402.46592,106.238539 C404.030173,107.146408 404.030793,108.617995 402.470905,109.523331 L389.033713,117.322078 C387.472213,118.22835 384.942707,118.229618 383.374037,117.319185 L370.653921,109.936618 C369.089668,109.028749 369.089048,107.557162 370.648937,106.651826 Z" id="Path" fill="#0247DC"></path>
                        <path d="M282.260589,157.951116 L295.697781,150.152369 C297.25928,149.246097 299.788786,149.244829 301.357457,150.155262 L314.077572,157.537829 C315.641825,158.445698 315.642445,159.917285 314.082557,160.822621 L300.645365,168.621369 C299.083865,169.52764 296.554359,169.528909 294.985689,168.618476 L282.265574,161.235909 C280.701321,160.328039 280.7007,158.856452 282.260589,157.951116 Z" id="Path" fill="#0247DC"></path>
                        <path d="M304.180899,145.228892 L317.618091,137.430145 C319.179591,136.523873 321.709097,136.522605 323.277767,137.433038 L335.997882,144.815605 C337.562135,145.723474 337.562755,147.195061 336.002867,148.100397 L322.565675,155.899145 C321.004175,156.805416 318.47467,156.806685 316.905999,155.896252 L304.185884,148.513685 C302.621631,147.605815 302.621011,146.134228 304.180899,145.228892 Z" id="Path" fill="#0247DC"></path>
                        <path d="M237.712862,183.805959 L251.150053,176.007211 C252.711553,175.10094 255.241059,175.099671 256.80973,176.010104 L269.529845,183.392671 C271.094098,184.30054 271.094718,185.772127 269.53483,186.677464 L256.097638,194.476211 C254.536138,195.382482 252.006632,195.383751 250.437962,194.473318 L237.717846,187.090751 C236.153594,186.182882 236.152973,184.711295 237.712862,183.805959 Z" id="Path" fill="#0247DC"></path>
                        <path d="M193.872241,209.250407 L207.309433,201.451659 C208.870933,200.545388 211.400439,200.544119 212.969109,201.454552 L225.689224,208.837119 C227.253477,209.744988 227.254098,211.216575 225.694209,212.121912 L212.257018,219.920659 C210.695518,220.82693 208.166012,220.828199 206.597341,219.917766 L193.877226,212.535199 C192.312973,211.62733 192.312353,210.155743 193.872241,209.250407 Z" id="Path" fill="#0247DC"></path>
                        <path d="M215.792551,196.528183 L229.229743,188.729435 C230.791243,187.823164 233.320749,187.821895 234.889419,188.732328 L247.609535,196.114895 C249.173788,197.022764 249.174408,198.494351 247.614519,199.399688 L234.177328,207.198435 C232.615828,208.104706 230.086322,208.105975 228.517652,207.195542 L215.797536,199.812975 C214.233283,198.905106 214.232663,197.433519 215.792551,196.528183 Z" id="Path" fill="#0247DC"></path>
                        <path d="M171.951931,221.972631 L185.389123,214.173883 C186.950623,213.267612 189.480129,213.266343 191.048799,214.176776 L203.768914,221.559343 C205.333167,222.467212 205.333787,223.938799 203.773899,224.844136 L190.336707,232.642883 C188.775207,233.549154 186.245701,233.550423 184.677031,232.63999 L171.956916,225.257423 C170.392663,224.349554 170.392043,222.877967 171.951931,221.972631 Z" id="Path" fill="#0247DC"></path>
                        <path d="M121.751663,251.108124 L162.757392,227.309005 C164.321274,226.401351 166.852712,226.398961 168.421382,227.309395 L181.141497,234.691961 C182.70575,235.599831 182.70134,237.074337 181.142169,237.979257 L140.136439,261.778376 C138.572557,262.68603 136.04112,262.68842 134.47245,261.777987 L121.752334,254.39542 C120.188081,253.487551 120.192492,252.013044 121.751663,251.108124 Z" id="Path" fill="#0247DC"></path>
                        <path d="M392.57356,93.9270987 L433.57929,70.1279795 C435.143172,69.2203255 437.674609,69.2179361 439.243279,70.1283692 L451.963394,77.5109361 C453.527647,78.4188054 453.523237,79.8933121 451.964066,80.7982319 L410.958336,104.597351 C409.394454,105.505005 406.863017,105.507394 405.294347,104.596961 L392.574232,97.2143945 C391.009979,96.3065252 391.014389,94.8320185 392.57356,93.9270987 Z" id="Path" fill="#0247DC"></path>
                        <path d="M336.707811,100.906306 L350.145003,93.1075582 C351.706503,92.2012867 354.236009,92.2000182 355.804679,93.1104513 L368.524794,100.493018 C370.089047,101.400887 370.089667,102.872474 368.529779,103.777811 L355.092587,111.576558 C353.531087,112.482829 351.001582,112.484098 349.432911,111.573665 L336.712796,104.191098 C335.148543,103.283229 335.147923,101.811642 336.707811,100.906306 Z" id="Path" fill="#0247DC"></path>
                        <path d="M359.335228,87.7736872 L372.77242,79.9749398 C374.33392,79.0686684 376.863426,79.0673998 378.432096,79.977833 L391.152211,87.3603998 C392.716464,88.2682691 392.717084,89.7398561 391.157196,90.6451922 L377.720004,98.4439396 C376.158504,99.3502111 373.628999,99.3514796 372.060328,98.4410465 L359.340213,91.0584797 C357.77596,90.1506104 357.77534,88.6790234 359.335228,87.7736872 Z" id="Path" fill="#0247DC"></path>
                        <path d="M270.94688,139.072977 L284.384072,131.27423 C285.945572,130.367959 288.475078,130.36669 290.043748,131.277123 L302.763864,138.65969 C304.328117,139.567559 304.328737,141.039146 302.768848,141.944482 L289.331657,149.74323 C287.770157,150.649501 285.240651,150.65077 283.67198,149.740337 L270.951865,142.35777 C269.387612,141.449901 269.386992,139.978314 270.94688,139.072977 Z" id="Path" fill="#0247DC"></path>
                        <path d="M248.319463,152.205596 L261.756655,144.406848 C263.318155,143.500577 265.847661,143.499308 267.416331,144.409742 L280.136447,151.792308 C281.7007,152.700178 281.70132,154.171765 280.141431,155.077101 L266.70424,162.875848 C265.14274,163.78212 262.613234,163.783388 261.044563,162.872955 L248.324448,155.490388 C246.760195,154.582519 246.759575,153.110932 248.319463,152.205596 Z" id="Path" fill="#0247DC"></path>
                        <path d="M226.399153,164.92782 L239.836345,157.129072 C241.397845,156.222801 243.927351,156.221532 245.496021,157.131966 L258.216136,164.514532 C259.780389,165.422402 259.78101,166.893989 258.221121,167.799325 L244.783929,175.598072 C243.22243,176.504344 240.692924,176.505612 239.124253,175.595179 L226.404138,168.212612 C224.839885,167.304743 224.839265,165.833156 226.399153,164.92782 Z" id="Path" fill="#0247DC"></path>
                        <path d="M204.478843,177.650044 L217.916035,169.851296 C219.477535,168.945025 222.00704,168.943756 223.575711,169.854189 L236.295826,177.236756 C237.860079,178.144626 237.860699,179.616213 236.300811,180.521549 L222.863619,188.320296 C221.302119,189.226568 218.772613,189.227836 217.203943,188.317403 L204.483828,180.934836 C202.919575,180.026967 202.918955,178.55538 204.478843,177.650044 Z" id="Path" fill="#0247DC"></path>
                        <path d="M160.638223,203.094492 L174.075414,195.295744 C175.636914,194.389473 178.16642,194.388204 179.73509,195.298637 L192.455206,202.681204 C194.019459,203.589074 194.020079,205.060661 192.46019,205.965997 L179.022999,213.764744 C177.461499,214.671016 174.931993,214.672284 173.363323,213.761851 L160.643207,206.379284 C159.078954,205.471415 159.078334,203.999828 160.638223,203.094492 Z" id="Path" fill="#0247DC"></path>
                        <path d="M138.717912,215.816716 L152.155104,208.017968 C153.716604,207.111697 156.24611,207.110428 157.81478,208.020861 L170.534895,215.403428 C172.099148,216.311298 172.099769,217.782885 170.53988,218.688221 L157.102689,226.486968 C155.541189,227.39324 153.011683,227.394508 151.443012,226.484075 L138.722897,219.101508 C137.158644,218.193639 137.158024,216.722052 138.717912,215.816716 Z" id="Path" fill="#0247DC"></path>
                        <path d="M99.8294533,238.387002 L130.23238,220.741593 C131.795213,219.834548 134.3258,219.832652 135.89447,220.743085 L148.614585,228.125652 C150.178838,229.033522 150.18458,230.502136 148.617156,231.411846 L118.21423,249.057255 C116.651396,249.9643 114.12081,249.966196 112.552139,249.055763 L99.8320242,241.673196 C98.2677712,240.765327 98.2620299,239.296712 99.8294533,238.387002 Z" id="Path" fill="#0247DC"></path>
                        <path d="M277.310841,85.3113213 L290.748033,77.5125739 C292.309533,76.6063024 294.839039,76.6050339 296.407709,77.515467 L309.127825,84.8980339 C310.692078,85.8059032 310.692698,87.2774901 309.132809,88.1828263 L295.695618,95.9815737 C294.134118,96.8878451 291.604612,96.8891137 290.035941,95.9786806 L277.315826,88.5961137 C275.751573,87.6882444 275.750953,86.2166575 277.310841,85.3113213 Z" id="Path" fill="#0247DC"></path>
                        <path d="M299.231152,72.5890973 L312.668343,64.7903499 C314.229843,63.8840785 316.759349,63.8828099 318.32802,64.793243 L331.048135,72.1758099 C332.612388,73.0836792 332.613008,74.5552661 331.05312,75.4606023 L317.615928,83.2593497 C316.054428,84.1656212 313.524922,84.1668897 311.956252,83.2564566 L299.236136,75.8738897 C297.671883,74.9660204 297.671263,73.4944335 299.231152,72.5890973 Z" id="Path" fill="#0247DC"></path>
                        <path d="M321.858569,59.456479 L335.29576,51.6577316 C336.85726,50.7514602 339.386766,50.7501916 340.955437,51.6606247 L353.675552,59.0431916 C355.239805,59.9510609 355.240425,61.4226478 353.680537,62.327984 L340.243345,70.1267314 C338.681845,71.0330029 336.152339,71.0342714 334.583669,70.1238383 L321.863553,62.7412714 C320.2993,61.8334021 320.29868,60.3618152 321.858569,59.456479 Z" id="Path" fill="#0247DC"></path>
                        <use id="Path" stroke="#0247DC" mask="url(#mask-7)" stroke-width="4" stroke-linecap="round" stroke-linejoin="round" xlink:href="#path-6"></use>
                        <use id="Path" stroke="#0247DC" mask="url(#mask-9)" stroke-width="4" stroke-linecap="round" stroke-linejoin="round" xlink:href="#path-8"></use>
                    </g>
                </g>
            </g>
        </g>
    </g>
</svg>