<?xml version="1.0" encoding="UTF-8"?>
<svg width="308px" height="201px" viewBox="0 0 308 201" version="1.1" xmlns="http://www.w3.org/2000/svg" xmlns:xlink="http://www.w3.org/1999/xlink">
    <!-- Generator: Sketch 40.3 (33839) - http://www.bohemiancoding.com/sketch -->
    <title>phone</title>
    <desc>Created with Sketch.</desc>
    <defs>
        <linearGradient x1="21.5742835%" y1="93.43656%" x2="41.5695688%" y2="93.4365571%" id="linearGradient-1">
            <stop stop-color="#FFFFFF" offset="0%"></stop>
            <stop stop-color="#80A2ED" offset="100%"></stop>
        </linearGradient>
        <path d="M298.99892,47.723368 C303.44793,50.2543664 305.692104,53.5647998 305.730808,56.882936 C305.731229,56.9190019 305.731389,76.9550688 305.731289,76.9911356 C305.72198,80.3339831 303.474327,83.6761351 298.987683,86.2285431 L117.981225,189.201345 C108.99561,194.313173 94.4313094,194.315596 85.452672,189.207737 L14.7323976,148.975666 C10.2525469,146.427122 8.00820678,143.088301 8.00002247,139.747093 C7.99993737,139.712354 8.00009401,119.677615 8.00049237,119.642877 C8.03857734,116.321745 10.2860803,113.00635 14.7436347,110.470491 L195.750093,7.49768915 C204.735708,2.38586086 219.300008,2.38343761 228.278646,7.49129647 L298.99892,47.723368 Z" id="path-2"></path>
        <mask id="mask-3" maskContentUnits="userSpaceOnUse" maskUnits="objectBoundingBox" x="-5" y="-5" width="307.731318" height="199.374815">
            <rect x="3" y="-1.33789058" width="307.731318" height="199.374815" fill="white"></rect>
            <use xlink:href="#path-2" fill="black"></use>
        </mask>
        <path d="M298.99892,47.723368 C307.978329,52.8316657 307.976315,61.1149985 298.987683,66.2285431 L117.981225,169.201345 C108.99561,174.313173 94.4313094,174.315596 85.452672,169.207737 L14.7323976,128.975666 C5.75298884,123.867368 5.75500283,115.584035 14.7436347,110.470491 L195.750093,7.49768915 C204.735708,2.38586086 219.300008,2.38343761 228.278646,7.49129647 L298.99892,47.723368 Z" id="path-4"></path>
        <mask id="mask-5" maskContentUnits="userSpaceOnUse" maskUnits="objectBoundingBox" x="-5" y="-5" width="307.731318" height="179.374815">
            <rect x="3" y="-1.33789058" width="307.731318" height="179.374815" fill="white"></rect>
            <use xlink:href="#path-4" fill="black"></use>
        </mask>
        <path d="M282.728605,67.4305061 C283.510792,67.8754844 283.506524,68.5993646 282.726552,69.043083 L122.928647,159.950547 C122.145326,160.39617 120.874232,160.395555 120.094045,159.951714 L31.0027125,109.268528 C30.2205258,108.823549 30.2247931,108.099669 31.0047651,107.655951 L190.802671,16.748487 C191.585991,16.3028637 192.857086,16.303479 193.637272,16.7473193 L282.728605,67.4305061 Z" id="path-6"></path>
        <mask id="mask-7" maskContentUnits="userSpaceOnUse" maskUnits="objectBoundingBox" x="-5" y="-5" width="262.895464" height="153.870325">
            <rect x="25.4179269" y="11.4143543" width="262.895464" height="153.870325" fill="white"></rect>
            <use xlink:href="#path-6" fill="black"></use>
        </mask>
        <path d="M68.6363599,145.130678 C64.8720406,147.272162 58.7697008,147.272633 55.0045538,145.130678 C51.2402345,142.989193 51.2394068,139.517632 55.0045538,137.375677 C58.7688731,135.234192 64.871213,135.233722 68.6363599,137.375677 C72.4006793,139.517161 72.4015069,142.988723 68.6363599,145.130678 Z" id="path-8"></path>
        <mask id="mask-9" maskContentUnits="userSpaceOnUse" maskUnits="objectBoundingBox" x="-2" y="-2" width="23.2789059" height="14.9675808">
            <rect x="50.1810039" y="133.769387" width="23.2789059" height="14.9675808" fill="white"></rect>
            <use xlink:href="#path-8" fill="black"></use>
        </mask>
    </defs>
    <g id="Illustration" stroke="none" stroke-width="1" fill="none" fill-rule="evenodd">
        <g id="Encrypted-Email-1" transform="translate(-2511.000000, -643.000000)">
            <g id="iphone-copy-2" transform="translate(2508.000000, 645.000000)">
                <g id="Combined-Shape">
                    <use fill="url(#linearGradient-1)" fill-rule="evenodd" xlink:href="#path-2"></use>
                    <use stroke="#0247DC" mask="url(#mask-3)" stroke-width="10" xlink:href="#path-2"></use>
                </g>
                <g id="Combined-Shape-Copy">
                    <use fill="#FFFFFF" fill-rule="evenodd" xlink:href="#path-4"></use>
                    <use stroke="#0247DC" mask="url(#mask-5)" stroke-width="10" xlink:href="#path-4"></use>
                </g>
                <g id="Path">
                    <use fill="#0247DC" fill-rule="evenodd" xlink:href="#path-6"></use>
                    <use stroke="#FFFFFF" mask="url(#mask-7)" stroke-width="10" xlink:href="#path-6"></use>
                </g>
                <use id="Path" stroke="#0247DC" mask="url(#mask-9)" stroke-width="4" xlink:href="#path-8"></use>
                <path d="M258.620198,39.216972 C259.20257,39.5482778 260.581681,40.7341452 258.620198,41.8193502 C256.658715,42.9045553 254.213275,42.1501855 253.63173,41.8193502 L237.590226,32.8388815 C237.007854,32.5075757 236.426164,31.42311 238.109025,30.440444 C239.791886,29.457778 243.037001,30.37914 243.618546,30.7099752 L258.620198,39.216972 Z" id="Path-Copy" fill="#0247DC" fill-rule="evenodd"></path>
                <path d="M233.972347,27.3976099 C232.606908,28.1743952 230.402612,28.1798108 229.027653,27.3976099 C227.662213,26.6208246 227.652693,25.3668224 229.027653,24.5846216 C230.393092,23.8078363 232.597388,23.8024207 233.972347,24.5846216 C235.337787,25.3614068 235.347307,26.615409 233.972347,27.3976099 Z" id="Path" fill="#0247DC" fill-rule="evenodd"></path>
                <path d="M257.089366,31.8952905 C256.211583,32.3946525 254.794536,32.398134 253.910634,31.8952905 C253.032851,31.3959286 253.026731,30.5897843 253.910634,30.0869409 C254.788417,29.5875789 256.205464,29.5840975 257.089366,30.0869409 C257.967149,30.5863029 257.973269,31.3924471 257.089366,31.8952905 Z" id="Path" fill="#0247DC" fill-rule="evenodd"></path>
            </g>
        </g>
    </g>
</svg>