<?xml version="1.0" encoding="UTF-8"?>
<svg width="1310px" height="131px" viewBox="0 0 1310 131" version="1.1" xmlns="http://www.w3.org/2000/svg" xmlns:xlink="http://www.w3.org/1999/xlink">
    <title>PAUBOX</title>
    <desc></desc>
    <defs></defs>
    <g id="Page-1" stroke="none" stroke-width="1" fill="none" fill-rule="evenodd" stroke-linecap="round" stroke-linejoin="round">
        <g id="Final-Copy" transform="translate(-274.000000, -1060.000000)" stroke="#FFFFFF" stroke-width="20">
            <g id="Blue" transform="translate(284.000000, 990.000000)">
                <g id="PAUBOX" transform="translate(0.000000, 80.000000)">
                    <path d="M200,1 C200,1 273,0.999999962 305,1 C341,1.00000004 340,29 340,29 C340,29 341,56 305,56 C273,56 200,56 200,56 L200,111" id="Path"></path>
                    <path d="M770,1 C770,1 823,0.999999962 855,1 C891,1.00000004 890,29 890,29 C890,29 891,56 855,56 C823,56 770,56 770,56" id="Path"></path>
                    <path d="M770,56 C770,56 843,56 875,56 C911,56 910,83 910,83 C910,83 911,111 875,111 C843,111 770,111 770,111" id="Path-Copy"></path>
                    <path d="M390,111 C390,111 390,61 390,31 C390,1 420,1 420,1 L500,1 C500,1 530,1 530,31 C530,61 530,111 530,111" id="Path-2"></path>
                    <path d="M392.5,64 L526.5,64" id="Line"></path>
                    <path d="M580,111 C580,111 580,61 580,31 C580,1 610,1 610,1 L690,1 C690,1 720,1 720,31 C720,61 720,111 720,111" id="Path-2-Copy" transform="translate(650.000000, 56.000000) rotate(-180.000000) translate(-650.000000, -56.000000) "></path>
                    <path d="M960,81 C960,51 960,61 960,31 C960,1 990,1 990,1 L1070,1 C1070,1 1100,1 1100,31 C1100,61 1100,51 1100,81 C1100,111 1070,111 1070,111 L990,111 C990,111 960,111 960,81 Z" id="Path-2-Copy" transform="translate(1030.000000, 56.000000) rotate(-180.000000) translate(-1030.000000, -56.000000) "></path>
                    <path d="M1150,1 L1290,111" id="Path-2-Copy" transform="translate(1220.000000, 56.000000) rotate(-180.000000) translate(-1220.000000, -56.000000) "></path>
                    <path d="M1150,1 L1290,111" id="Path-2-Copy-2" transform="translate(1220.000000, 56.000000) scale(-1, 1) rotate(-180.000000) translate(-1220.000000, -56.000000) "></path>
                    <path d="M0,110.514291 L14,72" id="Path-3-Copy-13"></path>
                    <path d="M42,110.278895 L66,44" id="Path-3-Copy-12"></path>
                    <path d="M84,110.520426 L125,0" id="Path-3-Copy-11"></path>
                </g>
            </g>
        </g>
    </g>
</svg>
