<?xml version="1.0" encoding="UTF-8"?>
<svg width="265px" height="155px" viewBox="0 0 265 155" version="1.1" xmlns="http://www.w3.org/2000/svg" xmlns:xlink="http://www.w3.org/1999/xlink">
    <!-- Generator: Sketch 40.3 (33839) - http://www.bohemiancoding.com/sketch -->
    <title>envelope copy 3</title>
    <desc>Created with Sketch.</desc>
    <defs>
        <path d="M247.56416,80.5785394 C254.240039,84.346875 254.237423,90.4580307 247.551779,94.2318788 L166.939183,139.735302 C160.256467,143.507497 149.428478,143.511355 142.751308,139.74229 L5.00438195,61.9882308 C-1.67149652,58.2198951 -1.66888099,52.1087394 5.0167632,48.3348913 L85.629359,2.83146861 C92.3120755,-0.940726896 103.140064,-0.944585324 109.817235,2.82447976 L247.56416,80.5785394 Z M109.827679,61.9941263 C111.309519,62.8305809 111.309605,64.186693 109.816719,65.0293833 L108.486083,65.7804876 C106.99819,66.6203591 104.58813,66.6216522 103.108907,65.7866745 L78.240646,51.7492779 C76.7588063,50.9128233 76.7587198,49.5567113 78.2516065,48.714021 L79.5822419,47.9629167 C81.0701349,47.1230451 83.4801954,47.1217521 84.9594186,47.9567298 L109.827679,61.9941263 Z M76.2308311,43.0297006 C77.7143193,43.8670858 77.7157423,45.2239523 76.2228556,46.0666426 L74.8922202,46.8177469 C73.4043272,47.6576184 70.9996749,47.6619642 69.5120584,46.8222488 L51.3685406,36.5807703 C49.8850523,35.7433851 49.8836293,34.3865187 51.376516,33.5438284 L52.7071515,32.7927241 C54.1950444,31.9528526 56.5996968,31.9485068 58.0873132,32.7882222 L76.2308311,43.0297006 Z M73.5403068,64.2662682 C75.0254603,65.1045934 75.0282333,66.4622219 73.5353466,67.3049122 L72.2047111,68.0560165 C70.7168181,68.895888 68.3062498,68.8968944 66.8215342,68.0588164 L31.2152379,47.9601168 C29.7300844,47.1217916 29.7273115,45.7641631 31.2201982,44.9214728 L32.5508336,44.1703685 C34.0387266,43.330497 36.4492949,43.3294906 37.9340105,44.1675686 L73.5403068,64.2662682 Z M113.85235,75.6435781 C115.337831,76.4820881 115.340869,77.8398663 113.847982,78.6825566 L112.517347,79.4336609 C111.029454,80.2735324 108.619732,80.2750168 107.133577,79.4361262 L56.7471666,50.9944898 C55.2616857,50.1559799 55.2586474,48.7982016 56.7515341,47.9555113 L58.0821695,47.204407 C59.5700625,46.3645355 61.9797841,46.3630511 63.4659392,47.2019417 L113.85235,75.6435781 Z M54.7328477,42.2723702 C56.2151822,43.1091042 56.2156699,44.4654426 54.7227832,45.308133 L53.3921478,46.0592373 C51.9042548,46.8991088 49.4942662,46.9004424 48.0140751,46.0649183 L41.2882926,42.2684134 C39.8059581,41.4316794 39.8054704,40.0753409 41.2983571,39.2326506 L42.6289925,38.4815463 C44.1168855,37.6416748 46.5268741,37.6403412 48.0070652,38.4758652 L54.7328477,42.2723702 Z M86.9794377,71.8522596 C88.4637155,72.6900905 88.4657785,74.0473182 86.9728918,74.8900085 L85.6422564,75.6411128 C84.1543634,76.4809843 81.7425367,76.4812804 80.2606651,75.6448078 L75.5575515,72.9900394 C74.0732737,72.1522086 74.0712107,70.7949809 75.5640974,69.9522906 L76.8947329,69.2011863 C78.3826259,68.3613147 80.7944525,68.3610186 82.2763241,69.1974913 L86.9794377,71.8522596 Z M111.836049,85.8830807 C113.3219,86.7217991 113.325237,88.0797463 111.83235,88.9224366 L110.501715,89.6735409 C109.013822,90.5134124 106.60564,90.5157655 105.117277,89.6756288 L88.9979438,80.5767428 C87.5120936,79.7380244 87.508756,78.3800772 89.0016427,77.5373868 L90.3322781,76.7862825 C91.8201711,75.946411 94.2283536,75.9440579 95.7167164,76.7841946 L111.836049,85.8830807 Z" id="path-1"></path>
        <mask id="mask-2" maskContentUnits="userSpaceOnUse" maskUnits="objectBoundingBox" x="-6" y="-6" width="264.568542" height="154.56677">
            <rect x="-6" y="-6" width="264.568542" height="154.56677" fill="white"></rect>
            <use xlink:href="#path-1" fill="black"></use>
        </mask>
    </defs>
    <g id="Illustration" stroke="none" stroke-width="1" fill="none" fill-rule="evenodd">
        <g id="Encrypted-Email-2" transform="translate(-1051.000000, -362.000000)">
            <g id="Group" transform="translate(167.000000, 296.000000)">
                <g id="Group-2" transform="translate(1023.500000, 130.500000) rotate(-360.000000) translate(-1023.500000, -130.500000) translate(872.000000, 25.000000)">
                    <g id="envelope-dynamic-r" transform="translate(24.000000, 45.000000)">
                        <g id="Group-2" transform="translate(-6.000000, 2.000000)">
                            <g id="Combined-Shape">
                                <use fill="#FFFFFF" fill-rule="evenodd" xlink:href="#path-1"></use>
                                <use stroke="#0247DC" mask="url(#mask-2)" stroke-width="12" xlink:href="#path-1"></use>
                            </g>
                            <path d="M232.55786,83.4855716 C232.37646,83.2682105 232.126748,83.0645735 231.808598,82.8849875 L223.745036,78.3333456 C222.262363,77.4964204 219.853959,77.4962893 218.368643,78.3347058 L206.950514,84.7799013 C206.63233,84.9595072 206.382256,85.1633203 206.200419,85.3809563 L201.950514,87.7799013 C200.469107,88.616112 200.46412,89.9770506 201.948105,90.814716 L206.198843,93.2141318 C206.380242,93.4314929 206.629955,93.6351299 206.948105,93.814716 L215.011667,98.3663578 C216.49434,99.203283 218.902744,99.2034141 220.38806,98.3649976 L231.806188,91.9198021 C232.124373,91.7401962 232.374447,91.5363831 232.556284,91.3187471 L236.806188,88.9198021 C238.287596,88.0835914 238.292583,86.7226528 236.808598,85.8849875 L232.55786,83.4855716 L232.55786,83.4855716 Z" id="Combined-Shape" stroke="#0039DB" stroke-width="5"></path>
                        </g>
                    </g>
                </g>
            </g>
        </g>
    </g>
</svg>