<?xml version="1.0" encoding="UTF-8"?>
<svg width="265px" height="156px" viewBox="0 0 265 156" version="1.1" xmlns="http://www.w3.org/2000/svg" xmlns:xlink="http://www.w3.org/1999/xlink">
    <!-- Generator: Sketch 40.3 (33839) - http://www.bohemiancoding.com/sketch -->
    <title>envelope copy</title>
    <desc>Created with Sketch.</desc>
    <defs>
        <path d="M5.07248605,81.3104115 L142.742061,3.36045042 C149.41419,-0.41737957 160.234464,-0.415899458 166.916354,3.36745688 L247.483682,48.9855255 C254.162646,52.7672251 254.169477,58.8947033 247.496056,62.6732646 L109.826482,140.623226 C103.154352,144.401056 92.3340785,144.399576 85.6521886,140.616219 L5.08486035,94.9981506 C-1.59410346,91.216451 -1.6009351,85.0889727 5.07248605,81.3104115 Z M84.9826244,95.3772649 L109.83692,81.3045011 C111.317928,80.465939 113.719029,80.4658901 115.211077,81.3107035 L116.540966,82.0637003 C118.028023,82.9056878 118.030313,84.2695232 116.55192,85.1066046 L91.6976241,99.1793683 C90.2166165,100.01793 87.8155153,100.017979 86.3234669,99.1731659 L84.9935787,98.4201692 C83.5065212,97.5781816 83.5042318,96.2143463 84.9826244,95.3772649 Z M58.1256088,110.58399 L76.2589383,100.316708 C77.7415935,99.4772127 80.1440305,99.4764074 81.6360788,100.321221 L82.9659671,101.074218 C84.4530246,101.916205 84.4607191,103.27698 82.973938,104.118811 L64.8406086,114.386093 C63.3579533,115.225588 60.9555164,115.226393 59.463468,114.38158 L58.1335798,113.628583 C56.6465223,112.786595 56.6388278,111.425821 58.1256088,110.58399 Z M78.2736215,121.988594 L113.859923,101.839255 C115.344243,100.998818 117.748029,100.997249 119.240077,101.842062 L120.569966,102.595059 C122.057023,103.437047 122.058805,104.801169 120.574923,105.641359 L84.9886213,125.790697 C83.5043017,126.631134 81.1005156,126.632704 79.6084672,125.78789 L78.278579,125.034893 C76.7915215,124.192906 76.7897397,122.828783 78.2736215,121.988594 Z M83.6462137,107.540265 L134.00433,79.0269699 C135.488977,78.1863473 137.893028,78.184628 139.385076,79.0294415 L140.714965,79.7824382 C142.202022,80.6244258 142.20465,81.9880692 140.71933,82.8290734 L90.3612134,111.342369 C88.8765667,112.182991 86.4725154,112.18471 84.980467,111.339897 L83.6505788,110.5869 C82.1635213,109.744913 82.1608931,108.381269 83.6462137,107.540265 Z M68.1960206,116.288327 L74.9180262,112.482257 C76.3995284,111.643415 78.8010305,111.643139 80.2930789,112.487952 L81.6229671,113.240949 C83.1100246,114.082936 83.1123859,115.446731 81.6330259,116.28436 L74.9110203,120.09043 C73.4295182,120.929272 71.028016,120.929548 69.5359676,120.084735 L68.2060794,119.331738 C66.7190219,118.489751 66.7166606,117.125956 68.1960206,116.288327 Z M122.591035,96.8956081 L127.291508,94.2341511 C128.774952,93.3942093 131.178028,93.3930419 132.670077,94.2378554 L133.999965,94.9908521 C135.487022,95.8328396 135.487547,97.1976744 134.006507,98.0362545 L129.306035,100.697712 C127.82259,101.537653 125.419514,101.538821 123.927465,100.694007 L122.597577,99.9410106 C121.11052,99.099023 121.109995,97.7341882 122.591035,96.8956081 Z M136.02388,89.28979 L152.134161,80.1679793 C153.619177,79.3271478 156.023527,79.325259 157.515576,80.1700725 L158.845464,80.9230692 C160.332521,81.7650568 160.336688,83.1278294 158.849161,83.9700828 L142.73888,93.0918935 C141.253864,93.9327251 138.849513,93.9346138 137.357465,93.0898003 L136.027577,92.3368036 C134.540519,91.494816 134.536353,90.1320435 136.02388,89.28979 Z" id="path-1"></path>
        <mask id="mask-2" maskContentUnits="userSpaceOnUse" maskUnits="objectBoundingBox" x="-6" y="-6" width="264.42549" height="154.92666">
            <rect x="-5.92847375" y="-5.47149212" width="264.42549" height="154.92666" fill="white"></rect>
            <use xlink:href="#path-1" fill="black"></use>
        </mask>
    </defs>
    <g id="Illustration" stroke="none" stroke-width="1" fill="none" fill-rule="evenodd">
        <g id="Encrypted-Email-2" transform="translate(-1997.000000, -360.000000)">
            <g id="Group" transform="translate(167.000000, 296.000000)">
                <g id="Group-2-Copy" transform="translate(1956.000000, 130.500000) scale(-1, 1) rotate(-360.000000) translate(-1956.000000, -130.500000) translate(1805.000000, 25.000000)">
                    <g id="envelope-dynamic-l" transform="translate(144.500000, 122.000000) scale(-1, 1) translate(-144.500000, -122.000000) translate(24.000000, 44.000000)">
                        <g id="Group-2" transform="translate(-6.000000, 1.000000)">
                            <g id="Combined-Shape">
                                <use fill="#FFFFFF" fill-rule="evenodd" xlink:href="#path-1"></use>
                                <use stroke="#0247DC" mask="url(#mask-2)" stroke-width="12" xlink:href="#path-1"></use>
                            </g>
                            <path d="M157.510911,9.44830677 L161.758429,11.853296 C162.14377,11.9561965 162.504637,12.0977112 162.822643,12.2777696 L174.23436,18.7392038 C175.718841,19.5797327 175.718609,20.9426308 174.236768,21.7816647 L166.177735,26.3447744 C165.859764,26.5248129 165.499209,26.6661234 165.114354,26.7687761 L160.866003,29.1742372 C159.382851,30.014013 156.973204,30.0111911 155.492629,29.1728736 L151.245111,26.7678844 C150.85977,26.6649838 150.498903,26.5234692 150.180897,26.3434107 L138.76918,19.8819765 C137.284698,19.0414476 137.284931,17.6785496 138.766771,16.8395157 L146.825805,12.276406 C147.143776,12.0963675 147.504331,11.9550569 147.889186,11.8524043 L152.137537,9.44694315 C153.620688,8.60716734 156.030336,8.6099893 157.510911,9.44830677 Z" id="Path" stroke="#0039DB" stroke-width="5"></path>
                        </g>
                    </g>
                </g>
            </g>
        </g>
    </g>
</svg>