<?xml version="1.0" encoding="UTF-8"?>
<svg width="1110px" height="130px" viewBox="0 0 1110 130" version="1.1" xmlns="http://www.w3.org/2000/svg" xmlns:xlink="http://www.w3.org/1999/xlink">
    <!-- Generator: Sketch 40.1 (33804) - http://www.bohemiancoding.com/sketch -->
    <title>paubox</title>
    <desc>Created with Sketch.</desc>
    <defs></defs>
    <g id="Page-1" stroke="none" stroke-width="1" fill="none" fill-rule="evenodd" stroke-linecap="round" stroke-linejoin="round">
        <g id="Final-Copy" transform="translate(-474.000000, -1061.000000)" stroke="#FFFFFF" stroke-width="20">
            <g id="white" transform="translate(484.000000, 990.000000)">
                <g id="paubox" transform="translate(0.000000, 81.000000)">
                    <path d="M0,-3.8242854e-13 C0,-3.8242854e-13 73,-3.7885888e-08 105,-3.8242854e-13 C141,3.78851239e-08 140,28 140,28 C140,28 141,55 105,55 C73,55 0,55 0,55 L0,110" id="Path"></path>
                    <path d="M570,-3.80993341e-13 C570,-3.80993341e-13 623,-3.78858963e-08 655,-3.73360557e-13 C691,3.78851419e-08 690,28 690,28 C690,28 691,55 655,55 C623,55 570,55 570,55" id="Path"></path>
                    <path d="M570,55 C570,55 643,55 675,55 C711,55 710,82 710,82 C710,82 711,110 675,110 C643,110 570,110 570,110" id="Path-Copy"></path>
                    <path d="M190,110 C190,110 190,60 190,30 C190,7.32365883e-14 220,0 220,0 L300,0 C300,0 330,9.76996262e-14 330,30 C330,60 330,110 330,110" id="Path-2"></path>
                    <path d="M192.5,63 L326.5,63" id="Line"></path>
                    <path d="M380,110 C380,110 380,60 380,30 C380,-1.202854e-14 410,-8.52651283e-14 410,-8.52651283e-14 L490,-8.52651283e-14 C490,-8.52651283e-14 520,1.24344979e-14 520,30 C520,60 520,110 520,110" id="Path-2-Copy" transform="translate(450.000000, 55.000000) rotate(-180.000000) translate(-450.000000, -55.000000) "></path>
                    <path d="M760,80 C760,50 760,60 760,30 C760,1.30080007e-13 790,5.68434189e-14 790,5.68434189e-14 L870,5.68434189e-14 C870,5.68434189e-14 900,1.54543045e-13 900,30 C900,60 900,50 900,80 C900,110 870,110 870,110 L790,110 C790,110 760,110 760,80 Z" id="Path-2-Copy" transform="translate(830.000000, 55.000000) rotate(-180.000000) translate(-830.000000, -55.000000) "></path>
                    <path d="M950,-8.52651283e-14 L1090,110" id="Path-2-Copy" transform="translate(1020.000000, 55.000000) rotate(-180.000000) translate(-1020.000000, -55.000000) "></path>
                    <path d="M950,-8.52651283e-14 L1090,110" id="Path-2-Copy-2" transform="translate(1020.000000, 55.000000) scale(-1, 1) rotate(-180.000000) translate(-1020.000000, -55.000000) "></path>
                </g>
            </g>
        </g>
    </g>
</svg>