<svg width="541" height="290" viewBox="0 0 541 290" xmlns="http://www.w3.org/2000/svg"><title>paubox_square</title><g stroke="#FFF" stroke-width="20" fill="none" fill-rule="evenodd" stroke-linecap="round" stroke-linejoin="round"><path d="M11 10h105c36 0 35 28 35 28s1 27-35 27H11v55M10 170h85c36 0 35 28 35 28s1 27-35 27H10M10 225h105c36 0 35 27 35 27s1 28-35 28H10M201 120V40c0-30 30-30 30-30h80s30 0 30 30v80M203.5 73h134M531 10v80c0 30-30 30-30 30h-80s-30 0-30-30V10M340 200v50c0 30-30 30-30 30h-80s-30 0-30-30v-50c0-30 30-30 30-30h80s30 0 30 30zM530 280L390 170M390 280l140-110"/></g></svg>