<svg width="1110" height="130" viewBox="0 0 1110 130" xmlns="http://www.w3.org/2000/svg"><title>paubox</title><g stroke="#0247DC" stroke-width="20" fill="none" fill-rule="evenodd" stroke-linecap="round" stroke-linejoin="round"><path d="M10 10h105c36 0 35 28 35 28s1 27-35 27H10v55M580 10h85c36 0 35 28 35 28s1 27-35 27h-85M580 65h105c36 0 35 27 35 27s1 28-35 28H580M200 120V40c0-30 30-30 30-30h80s30 0 30 30v80M202.5 73h134M530 10v80c0 30-30 30-30 30h-80s-30 0-30-30V10M910 40v50c0 30-30 30-30 30h-80s-30 0-30-30V40c0-30 30-30 30-30h80s30 0 30 30zM1100 120L960 10M960 120l140-110"/></g></svg>