<svg width="138" height="75" viewBox="0 0 138 75" xmlns="http://www.w3.org/2000/svg"><title>paubox_square_small</title><g stroke="#0247DC" stroke-width="7" fill="none" fill-rule="evenodd" stroke-linecap="round" stroke-linejoin="round"><path d="M4.25 4H30.5c9 0 8.75 7 8.75 7s.25 6.75-8.75 6.75H4.25V31.5M4 44h21.25c9 0 8.75 7 8.75 7s.25 6.75-8.75 6.75H4M4 57.75h26.25c9 0 8.75 6.75 8.75 6.75s.25 7-8.75 7H4M51.75 31.5v-20c0-7.5 7.5-7.5 7.5-7.5h20s7.5 0 7.5 7.5v20M51.875 17.75h33.5M134.25 4v20c0 7.5-7.5 7.5-7.5 7.5h-20s-7.5 0-7.5-7.5V4M86.5 51.5V64c0 7.5-7.5 7.5-7.5 7.5H59s-7.5 0-7.5-7.5V51.5C51.5 44 59 44 59 44h20s7.5 0 7.5 7.5zM134 71.5L99 44M99 71.5L134 44"/></g></svg>