<?xml version="1.0" encoding="UTF-8"?>
<svg width="138px" height="75px" viewBox="0 0 138 75" version="1.1" xmlns="http://www.w3.org/2000/svg" xmlns:xlink="http://www.w3.org/1999/xlink">
    <!-- Generator: Sketch 40.1 (33804) - http://www.bohemiancoding.com/sketch -->
    <title>paubox_square_small</title>
    <desc>Created with Sketch.</desc>
    <defs></defs>
    <g id="Page-1" stroke="none" stroke-width="1" fill="none" fill-rule="evenodd" stroke-linecap="round" stroke-linejoin="round">
        <g id="Final-Copy" transform="translate(-1937.000000, -338.000000)" stroke="#0247DC" stroke-width="7">
            <g id="blue" transform="translate(484.000000, 240.000000)">
                <g id="paubox_square_small" transform="translate(1457.000000, 102.000000)">
                    <path d="M0.25,-9.5607135e-14 C0.25,-9.5607135e-14 18.5,-9.471472e-09 26.5,-9.5607135e-14 C35.5,9.47128096e-09 35.25,7 35.25,7 C35.25,7 35.5,13.75 26.5,13.75 C18.5,13.75 0.25,13.75 0.25,13.75 L0.25,27.5" id="Path"></path>
                    <path d="M0,40 C0,40 13.25,40 21.25,40 C30.25,40 30,47 30,47 C30,47 30.25,53.75 21.25,53.75 C13.25,53.75 0,53.75 0,53.75" id="Path"></path>
                    <path d="M0,53.75 C0,53.75 18.25,53.75 26.25,53.75 C35.25,53.75 35,60.5 35,60.5 C35,60.5 35.25,67.5 26.25,67.5 C18.25,67.5 0,67.5 0,67.5" id="Path-Copy"></path>
                    <path d="M47.75,27.5 C47.75,27.5 47.75,15 47.75,7.5 C47.75,1.83091471e-14 55.25,0 55.25,0 L75.25,0 C75.25,0 82.75,2.44249065e-14 82.75,7.5 C82.75,15 82.75,27.5 82.75,27.5" id="Path-2"></path>
                    <path d="M47.875,13.75 L81.375,13.75" id="Line"></path>
                    <path d="M95.25,27.5 C95.25,27.5 95.25,15 95.25,7.5 C95.25,-1.01125624e-14 102.75,-2.84217094e-14 102.75,-2.84217094e-14 L122.75,-2.84217094e-14 C122.75,-2.84217094e-14 130.25,-3.99680289e-15 130.25,7.5 C130.25,15 130.25,27.5 130.25,27.5" id="Path-2-Copy" transform="translate(112.750000, 13.750000) rotate(-180.000000) translate(-112.750000, -13.750000) "></path>
                    <path d="M47.5,60 C47.5,52.5 47.5,55 47.5,47.5 C47.5,40 55,40 55,40 L75,40 C75,40 82.5,40 82.5,47.5 C82.5,55 82.5,52.5 82.5,60 C82.5,67.5 75,67.5 75,67.5 L55,67.5 C55,67.5 47.5,67.5 47.5,60 Z" id="Path-2-Copy" transform="translate(65.000000, 53.750000) rotate(-180.000000) translate(-65.000000, -53.750000) "></path>
                    <path d="M95,40 L130,67.5" id="Path-2-Copy" transform="translate(112.500000, 53.750000) rotate(-180.000000) translate(-112.500000, -53.750000) "></path>
                    <path d="M95,40 L130,67.5" id="Path-2-Copy-2" transform="translate(112.500000, 53.750000) scale(-1, 1) rotate(-180.000000) translate(-112.500000, -53.750000) "></path>
                </g>
            </g>
        </g>
    </g>
</svg>